# xmcd CD database file
#
# Track frame offsets:
#	150
#	29023
#	55201
#	80897
#	92179
#	115422
#	144582
#	164598
#	182757
#	204818
#	221710
#	263805
#	282940
#	301361
#
# Disc length: 4267 seconds
#
# Revision: 1
# Processed by: cddbd v1.4PL0 Copyright (c) Steve Scherf et al.
# Submitted via: Feurio! 1.66 - http://www.feurio.com
#
DISCID=d610a90e
DTITLE=Van Morrison - The Philosopher's Stone 2
DYEAR=1998
DGENRE=blues
TTITLE0=The Street Only Knew Your Name
TTITLE1=John Henry
TTITLE2=Western Plain
TTITLE3=Joyous Sound
TTITLE4=I Have Finally Come To Realize
TTITLE5=Flamingoes Fly
TTITLE6=Stepping Out Queen Part 2
TTITLE7=Bright Side Of The Road
TTITLE8=Street Theory
TTITLE9=Real Real Gone
TTITLE10=Showbusiness
TTITLE11=For Mr. Thomas
TTITLE12=Crazy Jane On God
TTITLE13=Song Of Being A Child
EXTD=
EXTT0=
EXTT1=
EXTT2=
EXTT3=
EXTT4=
EXTT5=
EXTT6=
EXTT7=
EXTT8=
EXTT9=
EXTT10=
EXTT11=
EXTT12=
EXTT13=
PLAYORDER=
